# xmcd CD database file
#
# Track frame offsets:
#	182
#	24632
#	54455
#	76865
#	97895
#	116182
#	135570
#	148912
#	176470
#	202920
#	218732
#	233200
#	258025
#	274012
#	290860
#
# Disc length: 3980 seconds
#
# Revision: 0
# Processed by: cddbd v1.4PL0 Copyright (c) Steve Scherf et al.
# Submitted via: CDex 1.51
#
DISCID=d70f8a0f
DTITLE=The New Melbourne Jazz Band - 15th Anniversary Concert
DYEAR=1997
DGENRE=Jazz
TTITLE0=Christopher Columbus
TTITLE1=Tin Roof Blues
TTITLE2=Palesteena
TTITLE3=Darkness On The Delta
TTITLE4=Darktown Strutters Ball
TTITLE5=I'm An Old Cowhand
TTITLE6=Bye And Bye
TTITLE7=Creole Love Call
TTITLE8=It Don't Mean A Thing If It Ain't Got That Swing
TTITLE9=Georgia Grind
TTITLE10=Lonesome Me
TTITLE11=Dans Les Rue D'Antibes
TTITLE12=Roll The Patrol
TTITLE13=Running Wild
TTITLE14=Sign Off
EXTD=YEAR: 1997
EXTT0=
EXTT1=
EXTT2=
EXTT3=
EXTT4=
EXTT5=
EXTT6=
EXTT7=
EXTT8=
EXTT9=
EXTT10=
EXTT11=
EXTT12=
EXTT13=
EXTT14=
PLAYORDER=
